#!OML:ASF H:\Terrain\Patient Classification 1\PLAYGROUND\JustinFriday\JustinFriday.ASF
:FULLY-SPECIFIED
:DEGREES
1142
root -17.051 27.8967 -7.00473 347.659 -52.0865 -5.06972
lowerback 34.0826 13.3149 14.6614
upperback 4.25232 20.8687 -11.3903
thorax -3.11158 10.873 -26.8398
lowerneck 8.20366 -8.16717 39.7741
upperneck 23.6015 -8.24793 -7.83956
head 4.80853 -1.30911 -8.68176
rclavicle -8.42847e-014 6.67916e-014
rhumerus 29.123 -27.2204 -51.297
rradius 88.5756
rwrist 2.16455
rhand -49.1453 -24.3618
rfingers 7.12502
rthumb -21.7686 -53.1577
lclavicle -8.42847e-014 6.67916e-014
lhumerus -11.9978 -58.3684 44.0024
lradius 41.5232
lwrist -5.95903
lhand -53.3793 -50.8603
lfingers 7.12502
lthumb -25.829 -22.5941
rfemur 19.8346 16.7039 25.6707
rtibia 8.18814
rfoot 28.4861 7.21007
rtoes 35.3219
lfemur -93.9459 27.5412 -6.33512
ltibia 119.304
lfoot 2.6794 -17.9072
ltoes -3.45987
1143
root -16.9913 27.9069 -6.94059 349.794 -51.4235 -7.345
lowerback 34.064 12.5593 16.5508
upperback 3.26349 20.7652 -11.1568
thorax -3.72499 10.6472 -27.7511
lowerneck 10.8636 -9.03529 39.8857
upperneck 22.8495 -8.0888 -7.8251
head 4.23343 -1.28357 -8.54859
rclavicle -1.20861e-013 -4.13472e-014
rhumerus 26.0374 -26.2787 -50.4952
rradius 89.3954
rwrist 0.450562
rhand -50.4843 -22.6338
rfingers 7.12502
rthumb -23.0539 -51.2748
lclavicle -1.20861e-013 -4.13472e-014
lhumerus -14.9425 -60.5803 45.8162
lradius 42.1009
lwrist -5.15621
lhand -53.6496 -51.5151
lfingers 7.12502
lthumb -26.0878 -23.2867
rfemur 20.4307 15.84 26.6688
rtibia 5.57455
rfoot 29.8475 10.8715
rtoes 26.0697
lfemur -95.5795 26.9703 -5.14141
ltibia 118.788
lfoot 3.82979 -18.2566
ltoes -5.14895
1144
root -16.9689 27.9303 -6.89025 349.602 -52.092 -7.25073
lowerback 35.6971 13.5847 15.7028
upperback 1.64179 22.08 -10.8045
thorax -5.98336 10.7248 -27.7865
lowerneck 13.107 -10.5308 40.4834
upperneck 21.7596 -8.79838 -7.71339
head 3.45731 -1.67201 -8.36775
rclavicle -3.18055e-014 3.81667e-014
rhumerus 23.1624 -25.5232 -49.2114
rradius 89.4105
rwrist -0.580658
rhand -50.0308 -21.2163
rfingers 7.12502
rthumb -22.6187 -49.911
lclavicle -3.18055e-014 3.81667e-014
lhumerus -18.5657 -64.0155 49.1918
lradius 42.894
lwrist -5.04044
lhand -53.8056 -51.531
lfingers 7.12502
lthumb -26.2373 -23.3248
rfemur 21.8607 16.5065 26.6962
rtibia 2.99484
rfoot 31.8258 7.44121
rtoes 28.8298
lfemur -95.6395 28.1162 -4.49098
ltibia 118.466
lfoot 5.54207 -18.5145
ltoes -1.85706
1145
root -16.9803 27.8601 -6.79268 352.299 -54.1656 -13.93
lowerback 36.3997 12.4676 20.617
upperback 2.33606 22.8975 -9.54194
thorax -3.78824 11.5622 -28.4492
lowerneck 16.6965 -11.098 38.3791
upperneck 20.3972 -8.25905 -6.56825
head 2.75789 -1.6496 -7.55325
rclavicle -2.3059e-014 -4.13472e-014
rhumerus 25.4692 -25.8459 -51.1818
rradius 89.4428
rwrist 0.506057
rhand -48.8158 -21.4583
rfingers 7.12502
rthumb -21.4521 -50.2906
lclavicle -2.3059e-014 -4.13472e-014
lhumerus -19.2323 -63.1523 49.6322
lradius 43.0283
lwrist -5.44028
lhand -53.946 -51.2784
lfingers 7.12502
lthumb -26.3717 -23.0922
rfemur 26.3691 17.2833 32.2869
rtibia -4.77083e-015
rfoot 33.4935 7.6272
rtoes 24.1117
lfemur -93.8309 31.9109 1.91543
ltibia 118.678
lfoot 8.00081 -21.1487
ltoes 1.06581
1146
root -16.9193 27.9697 -6.71714 345.47 -52.1012 -3.57543
lowerback 33.7691 13.2044 15.008
upperback 4.53715 20.8911 -11.0338
thorax -2.66487 10.9756 -26.3951
lowerneck 12.2723 -9.31062 38.5976
upperneck 22.6201 -7.97014 -7.48615
head 4.00988 -1.32283 -8.21056
rclavicle 3.73715e-014 4.45278e-014
rhumerus 28.8398 -26.7959 -53.4699
rradius 89.3306
rwrist 3.76723
rhand -47.9826 -22.9297
rfingers 7.12502
rthumb -20.6517 -51.851
lclavicle 3.73715e-014 4.45278e-014
lhumerus -16.6551 -61.3353 47.993
lradius 42.81
lwrist -5.56159
lhand -54.2753 -51.3581
lfingers 7.12502
lthumb -26.6868 -23.2196
rfemur 24.9669 17.0812 24.2186
rtibia -1.74931e-014
rfoot 34.0172 7.4345
rtoes 24.4367
lfemur -94.4297 28.1109 -5.33218
ltibia 118.401
lfoot 6.15887 -18.1112
ltoes -0.0448251
1147
root -16.8731 27.9896 -6.64164 344.957 -52.2516 -2.88682
lowerback 33.3599 13.2539 14.9242
upperback 4.84224 20.8773 -11.0521
thorax -2.17832 11.0756 -26.1952
lowerneck 11.6326 -9.01497 38.4556
upperneck 23.1765 -7.93018 -7.48364
head 4.28723 -1.2576 -8.25025
rclavicle -9.85972e-014 -6.36111e-015
rhumerus 27.5955 -26.8901 -52.832
rradius 89.8235
rwrist 2.70262
rhand -48.7988 -21.6582
rfingers 7.12502
rthumb -21.4358 -50.4923
lclavicle -9.85972e-014 -6.36111e-015
lhumerus -16.9961 -61.5622 48.5406
lradius 42.9046
lwrist -5.55115
lhand -54.7388 -51.597
lfingers 7.12502
lthumb -27.1303 -23.5268
rfemur 24.7909 17.3823 23.5366
rtibia 1.90833e-014
rfoot 35.2804 6.03557
rtoes 27.7033
lfemur -94.7699 28.6439 -5.42396
ltibia 118.128
lfoot 6.15297 -18.5524
ltoes -2.33484
1148
root -16.8511 28.0179 -6.61142 345.298 -53.1621 -3.39394
lowerback 33.6923 13.5829 15.0074
upperback 4.39595 21.3934 -10.96
thorax -2.56496 11.2365 -26.321
lowerneck 11.4551 -9.10109 38.8853
upperneck 24.2742 -8.0876 -7.93307
head 4.61785 -1.19676 -8.52116
rclavicle -3.49861e-014 5.725e-014
rhumerus 28.0411 -27.3801 -53.7517
rradius 90.554
rwrist 2.47569
rhand -44.4811 -22.0451
rfingers 7.12502
rthumb -17.2843 -51.2965
lclavicle -3.49861e-014 5.725e-014
lhumerus -18.3093 -62.3873 49.6876
lradius 43.0074
lwrist -5.22598
lhand -55.0292 -52.0852
lfingers 7.12502
lthumb -27.4081 -24.0587
rfemur 24.6953 18.1588 23.9491
rtibia 5.24792e-014
rfoot 35.9789 5.78419
rtoes 28.1259
lfemur -94.749 30.2661 -4.2782
ltibia 117.764
lfoot 6.90295 -19.3179
ltoes -2.76396
